<svg id="icon_user" data-name="icon/user" xmlns="http://www.w3.org/2000/svg" xmlns:xlink="http://www.w3.org/1999/xlink" width="24" height="24" viewBox="0 0 24 24">
  <defs>
    <clipPath id="clip-path">
      <path id="Mask" d="M16,19V17a2.947,2.947,0,0,0-3-3H5a2.947,2.947,0,0,0-3,3v2a.944.944,0,0,1-1,1,.944.944,0,0,1-1-1V17a4.952,4.952,0,0,1,5-5h8a4.952,4.952,0,0,1,5,5v2a1,1,0,0,1-2,0ZM4,5A4.952,4.952,0,0,1,9,0a4.952,4.952,0,0,1,5,5,4.951,4.951,0,0,1-5,5A4.951,4.951,0,0,1,4,5Z" transform="translate(3 2)"/>
    </clipPath>
  </defs>
  <g id="Group_1" data-name="Group 1">
    <path id="Mask-2" data-name="Mask" d="M16,19V17a2.947,2.947,0,0,0-3-3H5a2.947,2.947,0,0,0-3,3v2a.944.944,0,0,1-1,1,.944.944,0,0,1-1-1V17a4.952,4.952,0,0,1,5-5h8a4.952,4.952,0,0,1,5,5v2a1,1,0,0,1-2,0ZM4,5A4.952,4.952,0,0,1,9,0a4.952,4.952,0,0,1,5,5,4.951,4.951,0,0,1-5,5A4.951,4.951,0,0,1,4,5Z" transform="translate(3 2)"/>
    <g id="Mask_Group_1" data-name="Mask Group 1" clip-path="url(#clip-path)">
      <g id="Icon_" data-name="Icon 🎨">
        <rect id="color" width="24" height="24" fill="#002868"/>
      </g>
    </g>
  </g>
</svg>
