<svg id="PAF" xmlns="http://www.w3.org/2000/svg" width="262" height="23" viewBox="0 0 262 23">
  <rect id="PAF_white_background" data-name="PAF white background" width="262" height="23" fill="none"/>
  <path id="Founded" d="M55.4,5.12,53.9.95c-.013-.03-.025-.058-.037-.083L53.857.851,53.841.816a.285.285,0,0,0-.084-.084A1.044,1.044,0,0,0,53.3.656V.182h1.871l.151.474h-.01c-.359,0-.541.079-.541.237a.414.414,0,0,0,.023.125L55.509,3.1,56.765,0l1.25,3.1L59.27.014,59.719.2,57.974,5.117,56.7,1.956,55.4,5.12v0Zm-6.692-.085L45.674,1.516V4.944h-.713V1.04c0-.25-.159-.377-.474-.377l.1-.482h.964L48,3.046V1.251a.88.88,0,0,0-.069-.412.413.413,0,0,0-.37-.175l.028-.482H49.08l.085.482a.4.4,0,0,0-.454.446V5.036Zm-7.128,0L38.547,1.516V4.944h-.713V1.04c0-.25-.159-.377-.474-.377l.1-.482h.964l2.45,2.864V1.251A.861.861,0,0,0,40.8.839a.4.4,0,0,0-.369-.175l.027-.482h1.494l.085.482a.4.4,0,0,0-.454.446V5.036Zm-23.489,0L15.058,1.516V4.944h-.713V1.04c0-.25-.159-.377-.474-.377l.1-.482h.964l2.45,2.864V1.251a.866.866,0,0,0-.07-.412.4.4,0,0,0-.369-.175l.027-.482h1.494l.085.482a.4.4,0,0,0-.454.446V5.036Zm72.682-.02c-.1-.009-.185-.021-.252-.027l-.139-.608a2.32,2.32,0,0,0,.733.091A.816.816,0,0,0,91.7,4.2a.943.943,0,0,0,.2-.627q0-.749-.866-.942l-.209-.049-.118-.4a1.514,1.514,0,0,1,.16-.008c.06,0,.122,0,.19-.007a.654.654,0,0,0,.716-.72.689.689,0,0,0-.194-.509.73.73,0,0,0-.538-.2.6.6,0,0,0-.476.167.876.876,0,0,0-.125.329c-.032.13-.08.205-.138.223a.469.469,0,0,1-.107.022.3.3,0,0,1-.216-.077V.559a1.327,1.327,0,0,1,1.16-.441,1.8,1.8,0,0,1,1.11.308,1.063,1.063,0,0,1,.419.9,1.013,1.013,0,0,1-.279.712,1.285,1.285,0,0,1-.574.365,1.354,1.354,0,0,1,.7.424,1.151,1.151,0,0,1,.271.77,1.28,1.28,0,0,1-.5,1.056,1.834,1.834,0,0,1-1.166.371C90.988,5.023,90.872,5.019,90.774,5.015ZM79.509,4.9,77.351,2.822a.16.16,0,0,0-.1-.056.064.064,0,0,0-.04.013l-.026.022s-.006.013-.023.026a.2.2,0,0,0-.026.113v2h-.86V1.25a.894.894,0,0,0-.069-.42.42.42,0,0,0-.39-.173l.02-.475H77.52L77.6.662H77.59a.4.4,0,0,0-.455.449V2.283l1.913-2.1h.914v.16a.171.171,0,0,1-.147.168,1.248,1.248,0,0,0-.551.328l-1.292,1.39,2.011,2.333a.239.239,0,0,1,.062.16.31.31,0,0,1-.083.2.288.288,0,0,1-.2.09A.393.393,0,0,1,79.509,4.9Zm-4.572,0L73.412,2.864h-.486V4.107c0,.241.161.364.48.364l-.1.475H72.061V1.04c0-.25-.16-.377-.475-.377l.1-.482h1.8a1.806,1.806,0,0,1,1.157.342,1.148,1.148,0,0,1,.431.949,1.207,1.207,0,0,1-.752,1.167l1.158,1.921a.245.245,0,0,1,.035.126.289.289,0,0,1-.106.221.31.31,0,0,1-.229.106A.3.3,0,0,1,74.937,4.9ZM72.891,2.228h.377a1.04,1.04,0,0,0,.759-.235.708.708,0,0,0,.183-.526C74.2,1.017,73.9.789,73.3.789h-.412ZM10.165,4.58a1.8,1.8,0,0,1-.538-1.394V1.313A1.162,1.162,0,0,0,9.571.845.406.406,0,0,0,9.166.656V.182h1.627l.1.474h-.005c-.316,0-.476.122-.476.364V3.1a1.533,1.533,0,0,0,.189.887.9.9,0,0,0,.734.377c.646,0,1-.44,1.066-1.307l.2-2.877H13.2V3.137a1.909,1.909,0,0,1-.481,1.382,1.859,1.859,0,0,1-1.369.5A1.708,1.708,0,0,1,10.165,4.58Zm56.619-.3a2.437,2.437,0,0,1-.636-1.718A2.394,2.394,0,0,1,66.8.845,2.61,2.61,0,0,1,70.4.837a2.433,2.433,0,0,1,.644,1.727,2.422,2.422,0,0,1-.636,1.718,2.381,2.381,0,0,1-1.828.732A2.353,2.353,0,0,1,66.784,4.282Zm.676-2.99a1.987,1.987,0,0,0-.419,1.272,1.969,1.969,0,0,0,.419,1.271,1.377,1.377,0,0,0,1.13.558,1.393,1.393,0,0,0,1.139-.558,2.011,2.011,0,0,0,.419-1.271,1.988,1.988,0,0,0-.419-1.279A1.41,1.41,0,0,0,68.589.734,1.372,1.372,0,0,0,67.46,1.292Zm-63.1,2.99a2.453,2.453,0,0,1-.635-1.718A2.39,2.39,0,0,1,4.377.845,2.364,2.364,0,0,1,6.171.12,2.373,2.373,0,0,1,7.979.837a2.436,2.436,0,0,1,.643,1.727,2.422,2.422,0,0,1-.636,1.718,2.382,2.382,0,0,1-1.829.732A2.353,2.353,0,0,1,4.363,4.282Zm.677-2.99a1.98,1.98,0,0,0-.418,1.272A1.962,1.962,0,0,0,5.04,3.835a1.432,1.432,0,0,0,2.269,0,2.017,2.017,0,0,0,.419-1.271,1.994,1.994,0,0,0-.419-1.279A1.4,1.4,0,0,0,6.171.734,1.377,1.377,0,0,0,5.04,1.292Zm81.586,3.4V4.379c.046.008.224.013.531.013a.915.915,0,0,0,.773-.419,2.2,2.2,0,0,0,.35-1.066,1.507,1.507,0,0,1-.37.076l-.267.042a1.05,1.05,0,0,1-.126.015.548.548,0,0,1-.076.006h-.085a1.267,1.267,0,0,1-.923-.383A1.449,1.449,0,0,1,86.02,1.6a1.418,1.418,0,0,1,.454-1.06A1.639,1.639,0,0,1,87.63.113c1.031,0,1.565.625,1.586,1.858a4.212,4.212,0,0,1-.382,1.961,1.679,1.679,0,0,1-1.348,1.041,1.474,1.474,0,0,1-.152.008A.939.939,0,0,1,86.626,4.694Zm.45-3.73a.95.95,0,0,0-.2.621.922.922,0,0,0,.2.607.732.732,0,0,0,.575.237h.428s0-.013.126-.021c.09-.014.131-.024.131-.033l.005-.069c0-.04.006-.076.01-.113V2.032c0-.862-.252-1.3-.75-1.3A.668.668,0,0,0,87.076.965ZM94.4,4.945V4.477q.41,0,.517-.154a1.013,1.013,0,0,0,.077-.491v-2.5c0-.189-.079-.285-.239-.285a.872.872,0,0,0-.194.034l-.369.106V.559L95.829.113V4.945Zm-9.724,0H83.242V4.477h.009c.267,0,.438-.051.508-.153a1.031,1.031,0,0,0,.076-.491v-2.5c0-.189-.08-.285-.238-.285a.847.847,0,0,0-.2.034l-.369.106V.559L84.674.113V4.945h0Zm-20.278,0h-.858V3.039L62.384.894a.386.386,0,0,0-.259-.209,1.328,1.328,0,0,0-.333-.028V.18h1.834l.168.477h-.011c-.29,0-.437.056-.437.166a.281.281,0,0,0,.022.084l.7,1.369L65.485.042l.377.146L64.4,3.024V4.945h0Zm-27.539,0H35.077V4.469h.008c.221,0,.358-.047.418-.144a1.034,1.034,0,0,0,.084-.51V.18h.844V4.107a.32.32,0,0,0,.224.335.365.365,0,0,0,.111.023c.072,0,.136,0,.2,0l-.105.476h0Zm-35.516,0H.482v-3.9C.482.791.32.664,0,.664L.1.182h3l.139,1.032-.467.1c-.047-.319-.2-.481-.446-.481H1.313v1.46H2.66v.335l-1.139.28a.2.2,0,0,0-.181.209v1.83h0Zm27.2,0V1.04c0-.25-.159-.377-.474-.377l.1-.483h2.093A2.365,2.365,0,0,1,32.1.93a2.36,2.36,0,0,1,.587,1.627,2.341,2.341,0,0,1-.643,1.668,2.362,2.362,0,0,1-1.8.72Zm.86-.629h.754a1.542,1.542,0,0,0,1.192-.488,1.785,1.785,0,0,0,.455-1.25,1.92,1.92,0,0,0-.433-1.265A1.539,1.539,0,0,0,30.122.8H29.4Zm-9.878.629V1.04c0-.25-.159-.377-.474-.377l.1-.483h2.094a2.365,2.365,0,0,1,1.85.75,2.36,2.36,0,0,1,.587,1.627,2.332,2.332,0,0,1-2.444,2.388Zm.859-.629h.754a1.542,1.542,0,0,0,1.193-.488,1.785,1.785,0,0,0,.455-1.25,1.919,1.919,0,0,0-.434-1.265A1.537,1.537,0,0,0,21.1.8h-.725Zm32.659.628h-2.9V1.04c0-.25-.16-.377-.476-.377l.1-.482h3.1l.138,1.034-.466.1c-.046-.32-.2-.481-.448-.481H50.963v1.4h1.459V2.57l-1.241.278a.311.311,0,0,0-.148.062A.228.228,0,0,0,51,3.058V4.3h2.039v.647h0Zm-25.436,0H24.7V1.04c0-.25-.16-.377-.475-.377l.1-.482h3.1l.139,1.034-.467.1c-.047-.32-.2-.481-.446-.481H25.529v1.4h1.459V2.57l-1.243.278a.3.3,0,0,0-.147.062.215.215,0,0,0-.035.148V4.3H27.6v.647h0Z" transform="translate(82.499 17.343)" fill="#fff"/>
  <path id="Pan_Arcadian_Federation_of_America" data-name="Pan Arcadian Federation of America" d="M192.768,14a.628.628,0,0,1-.616-.595v-7.8h-1.189V4.315h1.189V3.294A3.359,3.359,0,0,1,193.135.73a2.6,2.6,0,0,1,1.823-.713,2.667,2.667,0,0,1,.612.067l1.018.034V1.476l-.754.019a.924.924,0,0,0-.176-.019.85.85,0,0,1-.176.019,1.137,1.137,0,0,0-1,.475,2.564,2.564,0,0,0-.226,1.257V4.315h1.42v1l-1.229.29a.486.486,0,0,0-.4.474l-.667,7.325A.567.567,0,0,1,192.768,14Zm19.292-1.988a.622.622,0,0,1-.612-.374l-1.49-2.991h-5.081l-.685,1.615a.606.606,0,0,0-.053.238c0,.293.307.441.913.441l-.316.9H200.9v-.9h.007c.646,0,1.045-.159,1.186-.473L205.769,1.8a.627.627,0,0,0,.053-.222c0-.315-.265-.474-.788-.474L205.4.2h2.611l4.645,10.975a.619.619,0,0,1,.05.24.556.556,0,0,1-.193.406A.716.716,0,0,1,212.06,12.012Zm-4.872-9.04-1.7,4.23h3.751ZM186.3,12.012a3.689,3.689,0,0,1-2.8-1.055,4.32,4.32,0,0,1-1.018-3.11,4.1,4.1,0,0,1,1.052-2.989A3.719,3.719,0,0,1,186.3,3.822a3.9,3.9,0,0,1,2.875,1.02,4.141,4.141,0,0,1,1.033,3.006,4.436,4.436,0,0,1-.977,3.124A3.85,3.85,0,0,1,186.3,12.012Zm-.019-6.985a1.51,1.51,0,0,0-1.348.834,4,4,0,0,0-.419,1.986c0,1.962.595,2.957,1.768,2.957,1.245,0,1.876-.989,1.876-2.939C188.159,5.982,187.528,5.027,186.283,5.027ZM163.3,12.012a3.694,3.694,0,0,1-2.805-1.055,4.327,4.327,0,0,1-1.016-3.11,4.1,4.1,0,0,1,1.051-2.989,3.723,3.723,0,0,1,2.77-1.037,3.894,3.894,0,0,1,2.874,1.02A4.138,4.138,0,0,1,167.2,7.848a4.436,4.436,0,0,1-.977,3.124A3.85,3.85,0,0,1,163.3,12.012Zm-.02-6.985a1.513,1.513,0,0,0-1.349.834,3.989,3.989,0,0,0-.419,1.986c0,1.962.595,2.957,1.768,2.957,1.245,0,1.876-.989,1.876-2.939C165.151,5.982,164.52,5.027,163.275,5.027Zm-11.407,6.985a2.764,2.764,0,0,1-1.944-.662A2.25,2.25,0,0,1,149.24,9.5l.44-7.815,1.543-.305V3.992h2.488V5.283h-2.488v4.3c0,.778.341,1.172,1.014,1.172h1.629v1.02A9.857,9.857,0,0,1,151.869,12.012Zm-32.259,0a2.913,2.913,0,0,1-2.47-1.24,4.8,4.8,0,0,1-.842-2.889A4.554,4.554,0,0,1,117.157,5a3.042,3.042,0,0,1,2.507-1.173,3.722,3.722,0,0,1,2.3.815V.356L123.938,0V9.633l1.017,1.308-1.489,1.071-1.193-1.545a3.212,3.212,0,0,1-1.261,1.172A3.114,3.114,0,0,1,119.61,12.012Zm.553-6.917a1.637,1.637,0,0,0-1.391.7,3.207,3.207,0,0,0-.492,1.9,3.48,3.48,0,0,0,.387,1.937,1.621,1.621,0,0,0,1.584,1.173,1.924,1.924,0,0,0,1.708-1.275V7.27l.175-1.358A2.863,2.863,0,0,0,120.163,5.1ZM67.777,12.012a2.916,2.916,0,0,1-2.47-1.24,4.836,4.836,0,0,1-.841-2.889A4.547,4.547,0,0,1,65.325,5,3.041,3.041,0,0,1,67.83,3.822a3.722,3.722,0,0,1,2.295.815V.356L72.106,0V9.633l1.017,1.308-1.49,1.071-1.192-1.545a3.21,3.21,0,0,1-1.262,1.172A3.108,3.108,0,0,1,67.777,12.012ZM68.33,5.1a1.639,1.639,0,0,0-1.391.7,3.207,3.207,0,0,0-.492,1.9,3.468,3.468,0,0,0,.388,1.937,1.62,1.62,0,0,0,1.584,1.173A1.921,1.921,0,0,0,70.125,9.53V7.27L70.3,5.912A2.858,2.858,0,0,0,68.33,5.1ZM41.2,12.012a.626.626,0,0,1-.614-.374L39.094,8.647H34.013l-.684,1.615a.7.7,0,0,0-.052.238c0,.293.307.441.912.441l-.316.9H30.035v-.9h.007c.647,0,1.045-.159,1.183-.473L34.906,1.8a.767.767,0,0,0,.051-.222c0-.315-.265-.474-.788-.474l.367-.9h2.611l4.644,10.975a.6.6,0,0,1,.053.24.556.556,0,0,1-.193.406A.728.728,0,0,1,41.2,12.012Zm-4.871-9.04-1.7,4.23h3.749ZM251.572,12.01a4.122,4.122,0,0,1-2.924-1.1,3.865,3.865,0,0,1-1.157-2.89A4.249,4.249,0,0,1,248.6,5a4.354,4.354,0,0,1,4.451-.917,2.864,2.864,0,0,1,1,.831V6.983a2.359,2.359,0,0,1-.545.067c-.4,0-.626-.154-.683-.458l-.012-.076-.007-.051c-.017-.116-.033-.225-.051-.332-.033-.132-.062-.271-.088-.424-.117-.328-.435-.5-.944-.51l-.083,0a1.855,1.855,0,0,0-1.495.716,3.16,3.16,0,0,0-.613,2,3,3,0,0,0,.648,2.038,2.3,2.3,0,0,0,1.856.816H253.4v.934A7.656,7.656,0,0,1,251.572,12.01Zm-6.167,0h0l-.665-.661a3.488,3.488,0,0,1-.876-2.549V6.015c0-.609-.26-.918-.772-.918a1.6,1.6,0,0,0-.211.015l.139-.933,2.438-.443.383.308V9.631l1.052,1.31-1.488,1.068Zm-14.193,0a3.41,3.41,0,0,1-2.68-1.206,4.354,4.354,0,0,1-1.051-2.955,4.059,4.059,0,0,1,1.139-2.991,3.63,3.63,0,0,1,2.645-1.039,3.552,3.552,0,0,1,2.488.886,4.265,4.265,0,0,1,1.209,3.4H229.2l.472.614a1.932,1.932,0,0,0,.65,1.427,2.179,2.179,0,0,0,1.523.561h.808v1.121A6.438,6.438,0,0,1,231.213,12.01Zm.176-6.933c-1.083,0-1.714.663-1.876,1.972l.526.018h3.015A2.486,2.486,0,0,0,233,6.607C232.825,5.592,232.283,5.078,231.388,5.078Zm-74.3,6.933h0l-.665-.661a3.488,3.488,0,0,1-.876-2.549V6.015c0-.609-.26-.918-.771-.918a1.8,1.8,0,0,0-.212.015l.139-.933,2.438-.443.383.308V9.631l1.051,1.31-1.487,1.068Zm-27.494,0a3.407,3.407,0,0,1-2.68-1.206,4.358,4.358,0,0,1-1.053-2.955,4.062,4.062,0,0,1,1.14-2.991,3.635,3.635,0,0,1,2.647-1.039,3.548,3.548,0,0,1,2.487.886,4.261,4.261,0,0,1,1.209,3.4h-5.764l.473.614a1.933,1.933,0,0,0,.649,1.427,2.179,2.179,0,0,0,1.523.561h.808v1.121A6.438,6.438,0,0,1,129.6,12.01Zm.175-6.933c-1.081,0-1.712.663-1.874,1.972l.525.018h3.015a2.391,2.391,0,0,0-.054-.461C131.211,5.592,130.669,5.078,129.773,5.078ZM111.638,12.01a3.413,3.413,0,0,1-2.681-1.206A4.354,4.354,0,0,1,107.9,7.85a4.061,4.061,0,0,1,1.139-2.991,3.634,3.634,0,0,1,2.646-1.039,3.553,3.553,0,0,1,2.489.886,4.268,4.268,0,0,1,1.21,3.4h-5.765l.473.614a1.926,1.926,0,0,0,.648,1.427,2.182,2.182,0,0,0,1.525.561h.805v1.121A6.432,6.432,0,0,1,111.638,12.01Zm.175-6.933c-1.081,0-1.712.663-1.875,1.972l.526.018h3.014a2.5,2.5,0,0,0-.053-.461C113.251,5.592,112.708,5.078,111.812,5.078ZM76.118,12.01h0l-.664-.661A3.487,3.487,0,0,1,74.577,8.8V6.015c0-.609-.259-.918-.77-.918a1.977,1.977,0,0,0-.211.015l.14-.933,2.435-.443.385.308V9.631l1.052,1.31-1.49,1.068Zm-23.112,0a4.127,4.127,0,0,1-2.926-1.1,3.87,3.87,0,0,1-1.157-2.89A4.222,4.222,0,0,1,50.027,5a3.847,3.847,0,0,1,2.927-1.174,3.794,3.794,0,0,1,1.525.257,2.833,2.833,0,0,1,1,.831V6.983a2.641,2.641,0,0,1-.544.067c-.4,0-.626-.154-.683-.458-.023-.158-.047-.313-.07-.459-.041-.165-.068-.292-.088-.424-.116-.328-.434-.5-.945-.51h-.083a1.861,1.861,0,0,0-1.5.716,3.165,3.165,0,0,0-.612,2,3.011,3.011,0,0,0,.648,2.038,2.3,2.3,0,0,0,1.857.816h1.367v.934A7.781,7.781,0,0,1,53.006,12.01ZM256.989,12a2.26,2.26,0,0,1-1.577-.612,2.12,2.12,0,0,1-.666-1.6c0-1.262.955-2.188,2.84-2.75.053-.023.28-.086.735-.2s.688-.188.7-.188v-.17c0-.587-.153-.969-.455-1.138A4.047,4.047,0,0,0,257,5.146h-1.4v-1l.114-.023.316-.063.045-.008.035-.007.858-.137c.165-.023.32-.041.474-.052l.473-.032c.084,0,.156,0,.22,0a3.247,3.247,0,0,1,1.98.548A2.356,2.356,0,0,1,261,6.371v4.673a6.846,6.846,0,0,0-1.822.51A6.3,6.3,0,0,1,256.989,12Zm2.033-4.537a3.646,3.646,0,0,0-1.631.831,1.718,1.718,0,0,0-.667,1.259,1.536,1.536,0,0,0,.281.986.939.939,0,0,0,.789.373,1.773,1.773,0,0,0,1.228-.526ZM143.406,12a2.26,2.26,0,0,1-1.577-.612,2.12,2.12,0,0,1-.666-1.6c0-1.262.955-2.188,2.84-2.75.053-.022.28-.085.735-.2.4-.112.687-.188.7-.188v-.17c0-.587-.153-.969-.455-1.138a4.015,4.015,0,0,0-1.562-.188h-1.4v-1l.055-.011.073-.014.069-.014.1-.02.214-.042.858-.137c.168-.023.323-.041.474-.052l.473-.032c.1,0,.159,0,.221,0a3.247,3.247,0,0,1,1.98.548,2.356,2.356,0,0,1,.882,2.005v4.673a6.784,6.784,0,0,0-1.822.51A6.3,6.3,0,0,1,143.406,12Zm2.033-4.537a3.655,3.655,0,0,0-1.631.831,1.718,1.718,0,0,0-.667,1.259,1.536,1.536,0,0,0,.281.986.939.939,0,0,0,.789.373,1.773,1.773,0,0,0,1.228-.526ZM80.6,12a2.263,2.263,0,0,1-1.577-.612,2.122,2.122,0,0,1-.666-1.6c0-1.263.955-2.188,2.839-2.75.056-.022.282-.085.735-.2.407-.112.689-.188.7-.188v-.17c0-.586-.154-.969-.456-1.138a3.968,3.968,0,0,0-1.559-.188h-1.4v-1l.049-.011.119-.023.339-.067.859-.137c.163-.023.318-.041.473-.052l.473-.032h.042c.059,0,.121,0,.178,0a3.238,3.238,0,0,1,1.979.548,2.353,2.353,0,0,1,.884,2.005v4.673a6.821,6.821,0,0,0-1.822.51A6.305,6.305,0,0,1,80.6,12Zm2.032-4.537a3.655,3.655,0,0,0-1.63.831,1.716,1.716,0,0,0-.665,1.259,1.534,1.534,0,0,0,.28.986.936.936,0,0,0,.788.373,1.772,1.772,0,0,0,1.227-.526ZM58.772,12a2.26,2.26,0,0,1-1.577-.612,2.122,2.122,0,0,1-.666-1.6c0-1.262.955-2.188,2.838-2.75.057-.023.277-.084.736-.2.407-.112.689-.188.7-.188v-.17c0-.586-.154-.969-.456-1.138a3.961,3.961,0,0,0-1.559-.188h-1.4v-1l.508-.1.859-.137c.164-.023.319-.041.473-.052l.473-.032h.035c.058,0,.121,0,.185,0a3.241,3.241,0,0,1,1.979.548,2.355,2.355,0,0,1,.884,2.005v4.673a6.683,6.683,0,0,0-1.822.51A6.305,6.305,0,0,1,58.772,12ZM60.8,7.458a3.655,3.655,0,0,0-1.63.831,1.713,1.713,0,0,0-.665,1.259,1.511,1.511,0,0,0,.28.986.933.933,0,0,0,.788.373,1.773,1.773,0,0,0,1.228-.526ZM10.6,12a2.26,2.26,0,0,1-1.577-.612,2.15,2.15,0,0,1-.667-1.6c0-1.263.955-2.188,2.839-2.75.059-.023.279-.084.736-.2.407-.112.689-.188.7-.188v-.17c0-.586-.154-.969-.456-1.138a3.949,3.949,0,0,0-1.559-.188h-1.4V4.37A2.9,2.9,0,0,1,8.151,6.015a5.217,5.217,0,0,1-3.2.883H3.365V9.8c0,.586.407.883,1.209.883l-.262,1.156H1.192v-9.5c0-.609-.4-.917-1.192-.917L.246.254H5.371a4.386,4.386,0,0,1,2.9.884A3.08,3.08,0,0,1,9.305,3.569a3.993,3.993,0,0,1-.042.567L9.3,4.127,9.442,4.1l.086-.017.2-.039.859-.137c.162-.023.317-.041.473-.052l.473-.032h.033l.063,0h.124a3.236,3.236,0,0,1,1.978.548,2.356,2.356,0,0,1,.885,2.005v4.673a6.717,6.717,0,0,0-1.823.51A6.3,6.3,0,0,1,10.6,12Zm2.032-4.537A3.655,3.655,0,0,0,11,8.289a1.713,1.713,0,0,0-.665,1.259,1.511,1.511,0,0,0,.28.986.933.933,0,0,0,.787.373,1.773,1.773,0,0,0,1.228-.526ZM3.278,1.715V5.386H5.1a2.215,2.215,0,0,0,1.508-.492A1.768,1.768,0,0,0,7.15,3.551c0-1.218-.672-1.836-2-1.836Zm212.5,10.129h-1.979V6.014c0-.6-.272-.91-.809-.91-.05,0-.108,0-.174.01l.14-.935,2.438-.441.383.323v1a3.485,3.485,0,0,1,2.384-1.241A2.479,2.479,0,0,1,220.47,5.2a3.529,3.529,0,0,1,2.7-1.375,2.509,2.509,0,0,1,1.891.748,2.8,2.8,0,0,1,.736,2.021v5.25h-1.98V6.71a1.572,1.572,0,0,0-.4-1.121,1.41,1.41,0,0,0-1.033-.425,2.488,2.488,0,0,0-1.805.968l.191,1.241v3.755h-1.243l-.682-4.367a2.641,2.641,0,0,0-.42-1.241,1.034,1.034,0,0,0-.86-.356A2.527,2.527,0,0,0,215.6,6.235l.175,1.189v4.418Zm-44.909,0h-1.982V6.015c0-.609-.258-.917-.768-.917a1.775,1.775,0,0,0-.212.015l.14-.936,2.436-.441.385.308v1.02h.035a3.1,3.1,0,0,1,2.47-1.241,2.43,2.43,0,0,1,1.839.715,2.969,2.969,0,0,1,.737,2.14v5.164H174.7l-.685-5.063c-.163-1.105-.629-1.666-1.386-1.666a2.681,2.681,0,0,0-1.944,1.173l.175,1.139v4.418Zm-82.183,0H86.7V6.015c0-.609-.259-.917-.769-.917a2.02,2.02,0,0,0-.212.015l.139-.936L88.3,3.736l.385.308v1.02h.035a3.1,3.1,0,0,1,2.471-1.241,2.431,2.431,0,0,1,1.84.715,2.972,2.972,0,0,1,.736,2.14v5.164H92.522l-.685-5.063c-.163-1.105-.629-1.666-1.384-1.666a2.684,2.684,0,0,0-1.945,1.173l.175,1.139v4.418Zm-70,0H16.7V6.015c0-.609-.259-.917-.769-.917a1.96,1.96,0,0,0-.212.015l.139-.936,2.436-.441.385.308v1.02h.035a3.1,3.1,0,0,1,2.47-1.241,2.431,2.431,0,0,1,1.84.715,2.972,2.972,0,0,1,.736,2.14v5.164H22.519l-.685-5.063c-.163-1.105-.629-1.666-1.384-1.666A2.684,2.684,0,0,0,18.5,6.286l.175,1.139v4.418Zm85.054,0h-2.152l0-9.5c0-.608-.407-.916-1.209-.916l.244-1.173h7.518l.351,2.515-1.174.239c-.116-.778-.493-1.173-1.121-1.173h-2.524V5.386h3.382V6.2l-2.857.68a.5.5,0,0,0-.456.509v4.452Zm135.942,0h-3.05V6.015c0-.6-.272-.911-.809-.911a1.622,1.622,0,0,0-.17.009l.138-.935,2.438-.441.385.323V5.18a.06.06,0,0,0,.035-.016,3.708,3.708,0,0,1,1.067-.952,2.584,2.584,0,0,1,1.3-.39,2.215,2.215,0,0,1,1.489.51L241.762,6l-.177.051a1.562,1.562,0,0,0-1.19-.594,2.454,2.454,0,0,0-1.928.917l.14,1.239v2.5a.635.635,0,0,0,.333.646,2.811,2.811,0,0,0,.947.1l-.212.983Zm-101.614,0h-3.05V6.015c0-.6-.273-.911-.81-.911a1.383,1.383,0,0,0-.17.009l.138-.935,2.438-.441.385.323V5.18a.055.055,0,0,0,.035-.016,3.731,3.731,0,0,1,1.068-.952,2.6,2.6,0,0,1,1.3-.39,2.219,2.219,0,0,1,1.49.51L140.148,6l-.177.051a1.561,1.561,0,0,0-1.189-.594,2.458,2.458,0,0,0-1.929.917l.14,1.239v2.5a.637.637,0,0,0,.333.646,2.847,2.847,0,0,0,.947.1l-.211.983Zm-92.084,0H42.932V6.015c0-.6-.273-.911-.811-.911a1.221,1.221,0,0,0-.171.009l.139-.935,2.436-.441.385.323V5.18a.047.047,0,0,0,.035-.016,3.659,3.659,0,0,1,1.069-.952,2.64,2.64,0,0,1,1.3-.39,2.218,2.218,0,0,1,1.489.51L48.065,6l-.175.051A1.564,1.564,0,0,0,46.7,5.454a2.456,2.456,0,0,0-1.927.917l.139,1.239v2.5a.635.635,0,0,0,.334.646,2.92,2.92,0,0,0,.946.1l-.212.983ZM29.962,8.716H25.968V6.779h3.994V8.715Zm214.866-6.1a.944.944,0,0,1-.686-.272.878.878,0,0,1-.278-.645.887.887,0,0,1,.278-.663.947.947,0,0,1,.686-.272.924.924,0,0,1,.666.272.9.9,0,0,1,.28.663.943.943,0,0,1-.264.645A.944.944,0,0,1,244.828,2.615Zm-88.314,0a.943.943,0,0,1-.685-.272.878.878,0,0,1-.278-.645.887.887,0,0,1,.278-.663.946.946,0,0,1,.685-.272.925.925,0,0,1,.667.272.9.9,0,0,1,.279.663.915.915,0,0,1-.946.917Zm-80.972,0a.946.946,0,0,1-.684-.272.873.873,0,0,1-.281-.645.883.883,0,0,1,.281-.663.949.949,0,0,1,.684-.272.929.929,0,0,1,.665.272.9.9,0,0,1,.281.663.942.942,0,0,1-.263.645A.948.948,0,0,1,75.541,2.615Z" fill="#fff"/>
</svg>
