<svg id="icon_weather_cloud-snow" data-name="icon/weather/cloud-snow" xmlns="http://www.w3.org/2000/svg" xmlns:xlink="http://www.w3.org/1999/xlink" width="20" height="20" viewBox="0 0 20 20">
  <defs>
    <clipPath id="clip-path">
      <path id="Mask" d="M8.711,19.832a.827.827,0,0,1-.249-1.172l2.49-3.683h-3.4a.658.658,0,0,1-.665-.418.767.767,0,0,1,0-.837L10.205,8.7a.811.811,0,0,1,1.162-.251.827.827,0,0,1,.249,1.172L9.126,13.3h3.4c.332,0,.5.251.664.5a.764.764,0,0,1,0,.837L9.873,19.665A1.022,1.022,0,0,1,9.209,20,1.17,1.17,0,0,1,8.711,19.832Zm7.137-4.938a.809.809,0,0,1-.83-.67.848.848,0,0,1,.664-1.005,3.272,3.272,0,0,0,2.573-3.934,3.292,3.292,0,0,0-3.236-2.679H13.939a.809.809,0,0,1-.83-.67A5.8,5.8,0,0,0,6.055,1.752,5.657,5.657,0,0,0,2.569,4.431a5.776,5.776,0,0,0-.664,4.52,5.979,5.979,0,0,0,2.821,3.683.741.741,0,0,1,.332,1.088.836.836,0,0,1-1.162.334A7.657,7.657,0,0,1,.246,9.369a7.205,7.205,0,0,1,.83-5.692A7.293,7.293,0,0,1,5.641.245a7.454,7.454,0,0,1,8.88,4.771h.5a5.058,5.058,0,0,1,4.9,4.018,5.119,5.119,0,0,1-3.9,5.86Z"/>
    </clipPath>
  </defs>
  <g id="Group_35" data-name="Group 35" transform="translate(0 0)">
    <path id="Mask-2" data-name="Mask" d="M8.711,19.832a.827.827,0,0,1-.249-1.172l2.49-3.683h-3.4a.658.658,0,0,1-.665-.418.767.767,0,0,1,0-.837L10.205,8.7a.811.811,0,0,1,1.162-.251.827.827,0,0,1,.249,1.172L9.126,13.3h3.4c.332,0,.5.251.664.5a.764.764,0,0,1,0,.837L9.873,19.665A1.022,1.022,0,0,1,9.209,20,1.17,1.17,0,0,1,8.711,19.832Zm7.137-4.938a.809.809,0,0,1-.83-.67.848.848,0,0,1,.664-1.005,3.272,3.272,0,0,0,2.573-3.934,3.292,3.292,0,0,0-3.236-2.679H13.939a.809.809,0,0,1-.83-.67A5.8,5.8,0,0,0,6.055,1.752,5.657,5.657,0,0,0,2.569,4.431a5.776,5.776,0,0,0-.664,4.52,5.979,5.979,0,0,0,2.821,3.683.741.741,0,0,1,.332,1.088.836.836,0,0,1-1.162.334A7.657,7.657,0,0,1,.246,9.369a7.205,7.205,0,0,1,.83-5.692A7.293,7.293,0,0,1,5.641.245a7.454,7.454,0,0,1,8.88,4.771h.5a5.058,5.058,0,0,1,4.9,4.018,5.119,5.119,0,0,1-3.9,5.86Z"/>
    <g id="Mask_Group_35" data-name="Mask Group 35" clip-path="url(#clip-path)">
      <g id="Icon_" data-name="Icon 🎨" transform="translate(0 0)">
        <rect id="Rectangle_7" data-name="Rectangle 7" width="20" height="20" fill="#fff"/>
      </g>
    </g>
  </g>
</svg>
