<svg id="icons_social_youtube" data-name="icons/social/youtube" xmlns="http://www.w3.org/2000/svg" xmlns:xlink="http://www.w3.org/1999/xlink" width="40" height="40" viewBox="0 0 40 40">
  <defs>
    <clipPath id="clip-path">
      <path id="Mask" d="M12,17h0c-.062,0-6.266-.06-8.159-.243-.091-.017-.2-.03-.327-.046a3.526,3.526,0,0,1-2.32-.987,5.283,5.283,0,0,1-.953-2.4A37.08,37.08,0,0,1,0,9.413V7.579A37.129,37.129,0,0,1,.24,3.668a5.286,5.286,0,0,1,.953-2.4A3.3,3.3,0,0,1,3.445.261L3.6.245C6.919,0,11.944,0,11.994,0h.011c.05,0,5.077,0,8.4.245l.152.016a3.3,3.3,0,0,1,2.253,1.008,5.289,5.289,0,0,1,.954,2.4A37.08,37.08,0,0,1,24,7.579V9.413a37.129,37.129,0,0,1-.24,3.911,5.292,5.292,0,0,1-.954,2.4,3.3,3.3,0,0,1-2.25,1.008l-.155.016C17.079,16.989,12.05,17,12,17ZM9.521,4.844v6.791l6.484-3.384Z" transform="translate(8 12)" fill="#fff"/>
    </clipPath>
  </defs>
  <rect id="icons_social_youtube_background" data-name="icons/social/youtube background" width="40" height="40" fill="none"/>
  <g id="icon">
    <circle id="Oval" cx="20" cy="20" r="20" fill="#fff"/>
    <path id="Mask-2" data-name="Mask" d="M12,17h0c-.062,0-6.266-.06-8.159-.243-.091-.017-.2-.03-.327-.046a3.526,3.526,0,0,1-2.32-.987,5.283,5.283,0,0,1-.953-2.4A37.08,37.08,0,0,1,0,9.413V7.579A37.129,37.129,0,0,1,.24,3.668a5.286,5.286,0,0,1,.953-2.4A3.3,3.3,0,0,1,3.445.261L3.6.245C6.919,0,11.944,0,11.994,0h.011c.05,0,5.077,0,8.4.245l.152.016a3.3,3.3,0,0,1,2.253,1.008,5.289,5.289,0,0,1,.954,2.4A37.08,37.08,0,0,1,24,7.579V9.413a37.129,37.129,0,0,1-.24,3.911,5.292,5.292,0,0,1-.954,2.4,3.3,3.3,0,0,1-2.25,1.008l-.155.016C17.079,16.989,12.05,17,12,17ZM9.521,4.844v6.791l6.484-3.384Z" transform="translate(8 12)" fill="#fff"/>
    <g id="icon-2" data-name="icon" clip-path="url(#clip-path)">
      <g id="Icon_" data-name="Icon 🎨">
        <rect id="color" width="40" height="40" fill="#002868"/>
      </g>
    </g>
  </g>
</svg>
